<svg id="Layer_1" data-name="Layer 1" xmlns="http://www.w3.org/2000/svg" viewBox="0 0 121.244 140">
	<defs>
		<style>.cls-1{fill:#bde9c9;}.cls-2{fill:#56a64a;}.cls-3{fill:#17be53;}.cls-4{fill:#169f39;}.cls-5{fill:#caf6e6;}.cls-6{fill:#7bcf6e;}.cls-7{fill:#e6f6ce;}.cls-8{fill:#ade4bc;}.cls-9{fill:#f3fbf5;}.cls-10{fill:#0f8818;}.cls-11{fill:#3a9137;}</style>
	</defs>
	<polygon class="cls-1" points="60.622 0 0 35 0 105 0 105 60.622 140 121.244 105 121.244 105 121.244 35 60.622 0"/><path class="cls-2" d="M84.854,83.99a27.959,27.959,0,0,1-48.464,0L0,105l60.622,35,60.622-35Z"/>
	<path class="cls-3" d="M84.854,56.009a27.843,27.843,0,0,1,0,27.981L121.244,105V35Z"/>
	<path class="cls-4" d="M60.622,98c11.159,0,20.2,3.133,20.2,7s-9.046,7-20.2,7v28l60.622-35L84.854,83.99A27.969,27.969,0,0,1,60.622,98Z"/>
	<path class="cls-5" d="M84.854,56.009,60.622,70V98A27.969,27.969,0,0,0,84.854,56.009Z"/>
	<path class="cls-6" d="M32.619,70a27.836,27.836,0,0,1,3.77-13.99L0,35v70L36.39,83.99A27.836,27.836,0,0,1,32.619,70Z"/>
	<path class="cls-2" d="M40.417,105c0-3.865,9.046-7,20.2-7A27.968,27.968,0,0,1,36.39,83.99L0,105l60.622,35V112C49.463,112,40.417,108.865,40.417,105Z"/>
	<path class="cls-7" d="M36.39,56.01A28,28,0,0,0,60.622,98V70Z"/>
	<path class="cls-1" d="M60.622,42V0L0,35,36.39,56.01A27.968,27.968,0,0,1,60.622,42Z"/>
	<path class="cls-8" d="M84.854,56.009,121.244,35,60.622,0V42A27.969,27.969,0,0,1,84.854,56.009Z"/>
	<path class="cls-9" d="M60.622,42A27.968,27.968,0,0,0,36.39,56.01L60.622,70,84.854,56.009A27.969,27.969,0,0,0,60.622,42Z"/>
	<path class="cls-10" d="M80.826,105c0-3.865-9.046-7-20.2-7v14C71.78,112,80.826,108.865,80.826,105Z"/>
	<path class="cls-11" d="M40.417,105c0,3.865,9.046,7,20.2,7V98C49.463,98,40.417,101.135,40.417,105Z"/>
</svg>